<mxfile host="app.diagrams.net" modified="2023-03-08T13:02:09.657Z" agent="5.0 (Windows)" etag="hU7DxoetbAsbDgtgTPjO" version="21.0.2" type="github">
  <diagram id="C5RBs43oDa-KdzZeNtuy" name="Page-1">
    <mxGraphModel dx="1422" dy="776" grid="1" gridSize="10" guides="1" tooltips="1" connect="1" arrows="1" fold="1" page="1" pageScale="1" pageWidth="827" pageHeight="1169" math="0" shadow="0">
      <root>
        <mxCell id="WIyWlLk6GJQsqaUBKTNV-0" />
        <mxCell id="WIyWlLk6GJQsqaUBKTNV-1" parent="WIyWlLk6GJQsqaUBKTNV-0" />
        <mxCell id="3CQJgt6skxkUrppJKEyl-3" value="" style="edgeStyle=orthogonalEdgeStyle;rounded=0;orthogonalLoop=1;jettySize=auto;html=1;" edge="1" parent="WIyWlLk6GJQsqaUBKTNV-1" source="3CQJgt6skxkUrppJKEyl-1" target="3CQJgt6skxkUrppJKEyl-2">
          <mxGeometry relative="1" as="geometry" />
        </mxCell>
        <mxCell id="3CQJgt6skxkUrppJKEyl-1" value="&lt;font data-font-src=&quot;https://fonts.googleapis.com/css?family=Poppins&quot; face=&quot;Poppins&quot;&gt;Start&lt;/font&gt;" style="ellipse;whiteSpace=wrap;html=1;" vertex="1" parent="WIyWlLk6GJQsqaUBKTNV-1">
          <mxGeometry x="354" y="40" width="120" height="80" as="geometry" />
        </mxCell>
        <mxCell id="3CQJgt6skxkUrppJKEyl-4" value="" style="edgeStyle=orthogonalEdgeStyle;rounded=0;orthogonalLoop=1;jettySize=auto;html=1;" edge="1" parent="WIyWlLk6GJQsqaUBKTNV-1" source="3CQJgt6skxkUrppJKEyl-2">
          <mxGeometry relative="1" as="geometry">
            <mxPoint x="414" y="260" as="targetPoint" />
            <Array as="points">
              <mxPoint x="414" y="240" />
              <mxPoint x="414" y="240" />
            </Array>
          </mxGeometry>
        </mxCell>
        <mxCell id="3CQJgt6skxkUrppJKEyl-2" value="&lt;div&gt;&lt;font face=&quot;Poppins&quot;&gt;Suma = 0&lt;/font&gt;&lt;/div&gt;" style="rounded=0;whiteSpace=wrap;html=1;" vertex="1" parent="WIyWlLk6GJQsqaUBKTNV-1">
          <mxGeometry x="354" y="160" width="120" height="60" as="geometry" />
        </mxCell>
        <mxCell id="3CQJgt6skxkUrppJKEyl-14" value="" style="edgeStyle=orthogonalEdgeStyle;rounded=0;orthogonalLoop=1;jettySize=auto;html=1;" edge="1" parent="WIyWlLk6GJQsqaUBKTNV-1" source="3CQJgt6skxkUrppJKEyl-12" target="3CQJgt6skxkUrppJKEyl-13">
          <mxGeometry relative="1" as="geometry" />
        </mxCell>
        <mxCell id="3CQJgt6skxkUrppJKEyl-12" value="&lt;font data-font-src=&quot;https://fonts.googleapis.com/css?family=Poppins&quot; face=&quot;Poppins&quot;&gt;pobierz a&lt;br&gt;&lt;/font&gt;" style="rounded=0;whiteSpace=wrap;html=1;" vertex="1" parent="WIyWlLk6GJQsqaUBKTNV-1">
          <mxGeometry x="354" y="260" width="120" height="60" as="geometry" />
        </mxCell>
        <mxCell id="3CQJgt6skxkUrppJKEyl-24" value="" style="edgeStyle=orthogonalEdgeStyle;rounded=0;orthogonalLoop=1;jettySize=auto;html=1;" edge="1" parent="WIyWlLk6GJQsqaUBKTNV-1" source="3CQJgt6skxkUrppJKEyl-13" target="3CQJgt6skxkUrppJKEyl-15">
          <mxGeometry relative="1" as="geometry" />
        </mxCell>
        <mxCell id="3CQJgt6skxkUrppJKEyl-25" value="" style="edgeStyle=orthogonalEdgeStyle;rounded=0;orthogonalLoop=1;jettySize=auto;html=1;" edge="1" parent="WIyWlLk6GJQsqaUBKTNV-1" source="3CQJgt6skxkUrppJKEyl-13" target="3CQJgt6skxkUrppJKEyl-16">
          <mxGeometry relative="1" as="geometry" />
        </mxCell>
        <mxCell id="3CQJgt6skxkUrppJKEyl-13" value="&lt;font data-font-src=&quot;https://fonts.googleapis.com/css?family=Poppins&quot; face=&quot;Poppins&quot;&gt;a! = 0&lt;br&gt;&lt;/font&gt;" style="rhombus;whiteSpace=wrap;html=1;" vertex="1" parent="WIyWlLk6GJQsqaUBKTNV-1">
          <mxGeometry x="361" y="360" width="106" height="110" as="geometry" />
        </mxCell>
        <mxCell id="3CQJgt6skxkUrppJKEyl-15" value="&lt;font face=&quot;Poppins&quot;&gt;suma + a&lt;br&gt;&lt;/font&gt;" style="rounded=0;whiteSpace=wrap;html=1;" vertex="1" parent="WIyWlLk6GJQsqaUBKTNV-1">
          <mxGeometry x="490" y="385" width="120" height="60" as="geometry" />
        </mxCell>
        <mxCell id="3CQJgt6skxkUrppJKEyl-18" value="" style="edgeStyle=orthogonalEdgeStyle;rounded=0;orthogonalLoop=1;jettySize=auto;html=1;" edge="1" parent="WIyWlLk6GJQsqaUBKTNV-1" source="3CQJgt6skxkUrppJKEyl-16" target="3CQJgt6skxkUrppJKEyl-17">
          <mxGeometry relative="1" as="geometry" />
        </mxCell>
        <mxCell id="3CQJgt6skxkUrppJKEyl-16" value="&lt;font face=&quot;Poppins&quot;&gt;WyÅ›wietl sume&lt;br&gt;&lt;/font&gt;" style="rounded=0;whiteSpace=wrap;html=1;" vertex="1" parent="WIyWlLk6GJQsqaUBKTNV-1">
          <mxGeometry x="210" y="385" width="120" height="60" as="geometry" />
        </mxCell>
        <mxCell id="3CQJgt6skxkUrppJKEyl-17" value="&lt;div&gt;Stop&lt;/div&gt;&lt;div&gt;&lt;br&gt;&lt;/div&gt;" style="ellipse;whiteSpace=wrap;html=1;" vertex="1" parent="WIyWlLk6GJQsqaUBKTNV-1">
          <mxGeometry x="210" y="480" width="120" height="80" as="geometry" />
        </mxCell>
        <mxCell id="3CQJgt6skxkUrppJKEyl-21" value="" style="endArrow=classic;html=1;rounded=0;" edge="1" parent="WIyWlLk6GJQsqaUBKTNV-1">
          <mxGeometry width="50" height="50" relative="1" as="geometry">
            <mxPoint x="560" y="240" as="sourcePoint" />
            <mxPoint x="410" y="240" as="targetPoint" />
          </mxGeometry>
        </mxCell>
        <mxCell id="3CQJgt6skxkUrppJKEyl-22" value="" style="endArrow=none;html=1;rounded=0;exitX=1;exitY=0.5;exitDx=0;exitDy=0;" edge="1" parent="WIyWlLk6GJQsqaUBKTNV-1" source="3CQJgt6skxkUrppJKEyl-15">
          <mxGeometry width="50" height="50" relative="1" as="geometry">
            <mxPoint x="390" y="360" as="sourcePoint" />
            <mxPoint x="680" y="240" as="targetPoint" />
            <Array as="points">
              <mxPoint x="680" y="415" />
            </Array>
          </mxGeometry>
        </mxCell>
        <mxCell id="3CQJgt6skxkUrppJKEyl-23" value="" style="endArrow=none;html=1;rounded=0;" edge="1" parent="WIyWlLk6GJQsqaUBKTNV-1">
          <mxGeometry width="50" height="50" relative="1" as="geometry">
            <mxPoint x="510" y="240" as="sourcePoint" />
            <mxPoint x="680" y="240" as="targetPoint" />
            <Array as="points" />
          </mxGeometry>
        </mxCell>
      </root>
    </mxGraphModel>
  </diagram>
</mxfile>
